HIERARCHY
ROOT Hips
{
 OFFSET 0.000000 0.000000 0.000000
 CHANNELS 6 Xposition Yposition Zposition Yrotation Xrotation Zrotation
 JOINT Chest
 {
  OFFSET 0.000000 9.585900 0.002600
  CHANNELS 3 Yrotation Xrotation Zrotation
  JOINT Chest2
  {
   OFFSET 0.000000 9.601200 -0.005300
   CHANNELS 3 Yrotation Xrotation Zrotation
   JOINT Chest3
   {
    OFFSET 0.000000 9.561800 0.000000
    CHANNELS 3 Yrotation Xrotation Zrotation
    JOINT Chest4
    {
     OFFSET 0.000000 9.552100 0.000000
     CHANNELS 3 Yrotation Xrotation Zrotation
     JOINT Neck
     {
      OFFSET 0.000000 14.453000 0.000000
      CHANNELS 3 Yrotation Xrotation Zrotation
      JOINT Head
      {
       OFFSET 0.000000 8.936500 -0.011300
       CHANNELS 3 Yrotation Xrotation Zrotation
       End Site
       {
        OFFSET 0.000000 17.073600 -0.006000
       }
      }
     }
     JOINT RightCollar
     {
      OFFSET -2.921100 9.558500 0.000000
      CHANNELS 3 Yrotation Xrotation Zrotation
      JOINT RightShoulder
      {
       OFFSET -13.519700 0.000000 0.000000
       CHANNELS 3 Yrotation Xrotation Zrotation
       JOINT RightElbow
       {
        OFFSET 0.000000 -29.696600 0.000000
        CHANNELS 3 Yrotation Xrotation Zrotation
        JOINT RightWrist
        {
         OFFSET 0.000000 -24.004700 0.000000
         CHANNELS 3 Yrotation Xrotation Zrotation
         End Site
         {
          OFFSET 0.000000 -17.728500 0.000000
         }
        }
       }
      }
     }
     JOINT LeftCollar
     {
      OFFSET 2.921100 9.558500 0.000000
      CHANNELS 3 Yrotation Xrotation Zrotation
      JOINT LeftShoulder
      {
       OFFSET 13.519700 0.000000 0.000000
       CHANNELS 3 Yrotation Xrotation Zrotation
       JOINT LeftElbow
       {
        OFFSET 0.000000 -29.696600 0.000000
        CHANNELS 3 Yrotation Xrotation Zrotation
        JOINT LeftWrist
        {
         OFFSET 0.000000 -24.004700 0.000000
         CHANNELS 3 Yrotation Xrotation Zrotation
         End Site
         {
          OFFSET 0.000000 -17.728500 0.000000
         }
        }
       }
      }
     }
    }
   }
  }
 }
 JOINT RightHip
 {
  OFFSET -7.771700 -0.012900 -0.001300
  CHANNELS 3 Yrotation Xrotation Zrotation
  JOINT RightKnee
  {
   OFFSET 0.000000 -40.869800 0.001200
   CHANNELS 3 Yrotation Xrotation Zrotation
   JOINT RightAnkle
   {
    OFFSET 0.000000 -39.717900 0.002100
    CHANNELS 3 Yrotation Xrotation Zrotation
    JOINT RightToe
    {
     OFFSET 0.000000 -4.965400 11.033500
     CHANNELS 3 Yrotation Xrotation Zrotation
     End Site
     {
      OFFSET 0.000000 -1.423100 5.872300
     }
    }
   }
  }
 }
 JOINT LeftHip
 {
  OFFSET 7.771700 -0.012900 -0.001300
  CHANNELS 3 Yrotation Xrotation Zrotation
  JOINT LeftKnee
  {
   OFFSET 0.000000 -40.869800 0.001200
   CHANNELS 3 Yrotation Xrotation Zrotation
   JOINT LeftAnkle
   {
    OFFSET 0.000000 -39.717900 0.002100
    CHANNELS 3 Yrotation Xrotation Zrotation
    JOINT LeftToe
    {
     OFFSET 0.000000 -4.965400 11.033500
     CHANNELS 3 Yrotation Xrotation Zrotation
     End Site
     {
      OFFSET 0.000000 -1.423100 5.872300
     }
    }
   }
  }
 }
}
MOTION
Frames: 12
Frame Time: 0.008333
0.000000 85.388000 0.000000 0.000000 -5.767877 0.000000 0.000000 11.653817 0.000000 0.000000 -5.885947 0.000000 0.000000 -0.000000 0.000000 0.000000 -0.000000 0.000000 0.000000 12.528835 0.000000 0.000000 0.711642 0.000000 0.000000 -0.000000 0.000000 0.000000 0.000000 -90.000000 0.000000 -2.309062 0.000000 0.000000 2.309062 0.000000 0.000000 -0.000000 0.000000 0.000000 -0.000000 90.000000 0.000000 -2.309062 0.000000 0.000000 2.309062 0.000000 0.000000 8.520406 0.000000 0.000000 1.905762 0.000000 -0.000000 -4.658285 0.000000 0.000000 -0.000000 0.000000 0.000000 8.520406 0.000000 0.000000 1.905762 0.000000 -0.000000 -4.658285 0.000000 0.000000 -0.000000 0.000000
-168.336684 49.258486 16.706655 174.743265 -30.824145 -4.107664 1.005184 19.134575 3.035762 0.082782 2.278123 0.302227 0.107070 3.814473 0.519980 0.801064 16.608485 2.358641 5.267271 21.992460 -0.789665 9.810076 5.311093 -2.812165 -4.763165 -0.690530 -2.479895 -10.680809 -12.059333 -13.588834 -55.973298 -48.008733 91.255608 1.970599 1.487116 -6.538249 -1.309951 -2.781295 2.834295 14.326385 -9.792722 14.384782 72.202445 -46.915512 -94.122084 14.227354 -1.949871 20.122877 -5.677383 -53.635799 -3.156542 175.849462 84.113903 -171.180766 -29.366342 -3.278165 -5.170740 -0.015443 -12.359247 0.186599 -15.242580 -55.398564 21.749689 -74.300370 65.914680 -79.132803 30.613820 7.246459 15.075019 0.098857 -0.294784 0.043760
-168.340332 49.257334 16.703801 174.757938 -30.779455 -4.126669 0.987999 19.105820 3.048559 0.063924 2.304573 0.312305 0.114877 3.787048 0.515974 0.795996 16.592617 2.357657 5.334769 22.036705 -0.763602 9.870640 5.356540 -2.857391 -4.837691 -0.669841 -2.518170 -10.845451 -12.183475 -13.694350 -56.059083 -48.017004 91.260897 1.951773 1.474741 -6.543956 -1.276587 -2.793992 2.822582 14.474311 -9.887108 14.623631 72.101290 -46.881264 -94.005656 14.225134 -1.945372 20.155434 -5.711797 -53.675763 -3.147752 175.821610 84.110420 -171.198252 -29.346303 -3.281022 -5.179573 0.016056 -12.363021 0.179342 -15.294568 -55.439884 21.779613 -74.329284 65.915775 -79.150498 30.608365 7.234174 15.062544 0.111883 -0.283022 0.041257
-168.345228 49.256538 16.700883 174.781073 -30.728872 -4.142603 0.960456 19.071803 3.053549 0.065881 2.295716 0.311024 0.110149 3.791029 0.521550 0.782228 16.580682 2.359648 5.376478 22.064494 -0.759890 9.956273 5.423156 -2.885161 -4.962429 -0.637217 -2.541416 -10.968051 -12.344784 -13.813352 -56.111335 -47.992611 91.243850 1.927820 1.478443 -6.576684 -1.192288 -2.862935 2.830918 14.575080 -9.927893 14.848079 71.986142 -46.827079 -93.883668 14.228516 -1.921654 20.220744 -5.752841 -53.721554 -3.152375 175.715459 84.102976 -171.296779 -29.309022 -3.283360 -5.191116 0.050065 -12.370139 0.169091 -15.346467 -55.488907 21.789656 -74.359413 65.917321 -79.161314 30.611606 7.225760 15.045758 0.111917 -0.275689 0.039679
-168.350878 49.258408 16.694829 174.797839 -30.699339 -4.145501 0.945632 19.072749 3.055208 0.062365 2.289218 0.312101 0.106598 3.780587 0.523677 0.736004 16.555992 2.383073 5.425714 22.101644 -0.794353 10.048912 5.501529 -2.906222 -5.016820 -0.616517 -2.582461 -11.152153 -12.504166 -13.954471 -56.131181 -47.933723 91.221565 1.894693 1.487984 -6.631228 -1.088075 -2.901409 2.799569 14.693544 -9.992023 15.068471 71.858088 -46.746937 -93.767173 14.242008 -1.887399 20.317069 -5.769810 -53.747452 -3.182113 175.519700 84.084013 -171.498523 -29.202490 -3.279863 -5.205782 -0.025336 -12.380113 0.183600 -15.370967 -55.516900 21.771160 -74.365032 65.929724 -79.152187 30.620025 7.231501 15.040202 0.091388 -0.288553 0.036287
-168.355545 49.259925 16.691761 174.827066 -30.652472 -4.155679 0.929607 19.085119 3.069660 0.055034 2.276458 0.313857 0.097351 3.751291 0.518613 0.704300 16.531390 2.390348 5.479290 22.144201 -0.807285 10.138953 5.579307 -2.926532 -5.025503 -0.608794 -2.607488 -11.419315 -12.661920 -14.096469 -56.126432 -47.848278 91.198249 1.854756 1.491586 -6.690141 -1.008218 -2.926619 2.786567 14.833623 -10.071365 15.277942 71.721530 -46.642866 -93.660473 14.266180 -1.845788 20.426465 -5.802792 -53.790552 -3.195717 175.381572 84.075467 -171.638806 -29.165865 -3.274689 -5.207330 -0.023409 -12.391043 0.178603 -15.416608 -55.558113 21.766153 -74.372022 65.936397 -79.147620 30.625335 7.218338 15.031643 0.094413 -0.276303 0.029679
-168.359573 49.261843 16.690693 174.862344 -30.597457 -4.165425 0.897999 19.063890 3.069202 0.051730 2.256932 0.310877 0.093061 3.749296 0.521004 0.680808 16.512195 2.394407 5.543969 22.196372 -0.806793 10.230639 5.659278 -2.947525 -5.104516 -0.618839 -2.608288 -11.635579 -12.810594 -14.250402 -56.118993 -47.751144 91.180309 1.811357 1.488377 -6.737579 -0.941190 -2.941922 2.786981 14.982038 -10.149601 15.474240 71.599106 -46.528388 -93.570211 14.300225 -1.798811 20.527979 -5.836224 -53.840846 -3.212144 175.233274 84.070736 -171.786979 -29.148774 -3.270252 -5.205104 -0.079471 -12.400693 0.184609 -15.474205 -55.606826 21.765715 -74.365687 65.940281 -79.130363 30.629606 7.218890 15.018766 0.088991 -0.274994 0.028358
-168.362676 49.264224 16.691496 174.893039 -30.536932 -4.170274 0.867747 19.036522 3.062377 0.048753 2.238537 0.310931 0.091661 3.740033 0.518966 0.661846 16.495468 2.400703 5.607131 22.247841 -0.809611 10.342925 5.759446 -2.965240 -5.186923 -0.636646 -2.612077 -11.855629 -12.940881 -14.395796 -56.141313 -47.661700 91.180101 1.767915 1.483847 -6.768211 -0.902455 -2.938196 2.782168 15.150225 -10.224743 15.664688 71.514742 -46.422673 -93.503426 14.335965 -1.748807 20.601552 -5.860486 -53.897661 -3.221824 175.207966 84.079051 -171.801837 -29.220626 -3.268941 -5.186654 -0.013737 -12.408426 0.159946 -15.533430 -55.657435 21.774158 -74.338768 65.942945 -79.098943 30.627278 7.223536 15.004433 0.074468 -0.279634 0.032636
-168.365999 49.263020 16.700699 174.921968 -30.424310 -4.168546 0.831868 18.955038 3.045475 0.047765 2.233223 0.314254 0.087598 3.727664 0.519238 0.649344 16.467854 2.402390 5.679854 22.307307 -0.811763 10.472027 5.875102 -2.983543 -5.232906 -0.644216 -2.622458 -12.111302 -13.060002 -14.523470 -56.216340 -47.603860 91.202668 1.731928 1.482883 -6.774368 -0.856635 -2.944076 2.799796 15.303327 -10.262463 15.824192 71.477493 -46.338448 -93.455649 14.362863 -1.691167 20.629515 -5.884833 -54.015275 -3.241829 175.112168 84.074761 -171.900818 -29.182504 -3.248747 -5.185041 -0.021699 -12.420849 0.150673 -15.650659 -55.742514 21.816888 -74.246717 65.951648 -79.015187 30.640051 7.216351 14.988232 0.060529 -0.255981 0.026898
-168.365446 49.268113 16.701658 174.928744 -30.378217 -4.166327 0.821219 18.937013 3.039679 0.048764 2.226151 0.313395 0.085036 3.714599 0.519805 0.639557 16.443191 2.408647 5.764829 22.375615 -0.814680 10.623064 6.008148 -3.005578 -5.287111 -0.667048 -2.639582 -12.347766 -13.142714 -14.633385 -56.349057 -47.599328 91.239854 1.711662 1.487123 -6.747105 -0.822877 -2.951661 2.823018 15.458519 -10.279982 15.965927 71.488653 -46.280824 -93.415879 14.372534 -1.621692 20.599539 -5.891147 -54.055030 -3.249113 175.009439 84.079337 -172.001869 -29.167209 -3.246883 -5.189560 -0.020601 -12.423373 0.150384 -15.693206 -55.777377 21.837006 -74.213240 65.958624 -78.990907 30.645404 7.223216 14.990619 0.050493 -0.263968 0.022114
-168.361528 49.272234 16.706298 174.934597 -30.313119 -4.178689 0.813802 18.885937 3.048959 0.048572 2.231789 0.314176 0.078669 3.708228 0.521407 0.637041 16.412798 2.413382 5.863310 22.454576 -0.818100 10.797862 6.162014 -3.030952 -5.349721 -0.701933 -2.666896 -12.563187 -13.192413 -14.720992 -56.543732 -47.659639 91.286806 1.709922 1.496106 -6.680931 -0.799794 -2.955638 2.839692 15.616938 -10.292582 16.100505 71.545153 -46.254205 -93.375446 14.363667 -1.544458 20.504336 -5.917644 -54.113266 -3.223369 174.987743 84.090897 -172.016480 -29.177611 -3.235670 -5.189424 -0.016995 -12.431538 0.145184 -15.749160 -55.833089 21.886087 -74.202125 65.952543 -78.969736 30.633153 7.235694 14.974783 0.068361 -0.263694 0.024058
-168.358511 49.275488 16.712933 174.936850 -30.235739 -4.178996 0.803826 18.822754 3.046769 0.045378 2.237448 0.314893 0.077128 3.697867 0.522239 0.636808 16.385709 2.421223 5.976626 22.546240 -0.819952 10.998232 6.340422 -3.056141 -5.392371 -0.723247 -2.701734 -12.792242 -13.239414 -14.786665 -56.805233 -47.780545 91.349230 1.725552 1.512804 -6.573122 -0.781143 -2.962506 2.853048 15.782971 -10.301132 16.225153 71.640038 -46.263010 -93.331921 14.342607 -1.469148 20.352889 -5.925898 -54.187336 -3.207866 175.021978 84.109147 -171.968439 -29.248466 -3.229795 -5.176663 -0.017829 -12.434261 0.136832 -15.815052 -55.895098 21.932239 -74.155534 65.949922 -78.926209 30.645832 7.244040 14.968042 0.055614 -0.265103 0.021340
